:SAMPLES-PER-SECOND 30
:FULLY-SPECIFIED
:DEGREES
94
root  21.13697773 37.73333332 -31.20510972 -4.044730186 3.441910028 -2.073189974
lowerback  5.028850079 -2.127140045 1.680660009
upperback  2.28599 -2.731100082 2.768709898
thorax  -0.4090119898 -1.367670059 2.045389891
lowerneck  -14.73069954 2.743289948 -0.8915510178
upperneck  -1.547629952 3.862099886 -2.714070082
head  2.070319891 1.829049945 -0.4773879945
lclavicle  0 -1.620099928e-014 -1.431250036e-014
lhumerus  -31.55739975 6.045199871 90.09169769
lradius  -2.959868681e-031 -1.925622348e-031 33.04710007
lwrist  -2.824900031e-030 -4.943575054e-030 19.76519966
lhand  -1.522208093e-030 -21.89089966 22.84740067
lfingers  90 7.125020027 -90
lthumb  90.61603193 7.755020578 85.4441456
rclavicle  0 -1.620099928e-014 -1.431250036e-014
rhumerus  -41.29029846 -18.82259941 -73.729599
rradius  3.401800482e-031 9.468883344e-032 15.55449963
rwrist  2.824900031e-030 -2.824900031e-030 2.726569891
rhand  1.570731925e-030 -25.9428997 18.57430077
rfingers  -90 -7.125020027 -90
rthumb  -89.60083768 -33.59330664 -89.2785978
rfemur  -18.40480042 5.074309826 26.71430016
rtibia  -0 0 35.2682991
rfoot  -0 -14.67679977 -9.12005043
rtoes  -1.575397198 19.94038992 -85.38945295
lfemur  1.082499981 -0.06421930343 -20.71780014
ltibia  -0 0 61.11299896
lfoot  -0 16.62789917 8.082119942
ltoes  -3.695914299 -19.66929668 -100.8636129
95
root  21.12026665 37.76977719 -30.86822089 -4.171299934 3.211970091 -2.209660053
lowerback  5.22205019 -2.033720016 1.826169968
upperback  2.332240105 -2.594079971 2.773180008
thorax  -0.4782850146 -1.298220038 1.968279958
lowerneck  -14.76399994 2.681230068 -1.031559944
upperneck  -1.48635006 3.800290108 -2.556740046
head  2.089489937 1.802880049 -0.405719012
lclavicle  0 -1.620099928e-014 -1.431250036e-014
lhumerus  -31.56520081 6.847000122 89.60739899
lradius  -3.02418125e-031 -1.822956885e-031 31.08130074
lwrist  -2.824900031e-030 -7.062250077e-031 19.37989998
lhand  -1.522208093e-030 -21.89089966 22.84740067
lfingers  90 7.125020027 -90
lthumb  90.61603193 7.755020578 85.4441456
rclavicle  0 -1.620099928e-014 -1.431250036e-014
rhumerus  -40.3730011 -17.80940056 -74.86990356
rradius  3.393903425e-031 9.748146376e-032 16.02540016
rwrist  2.824900031e-030 -1.412450015e-030 1.299530029
rhand  1.570731925e-030 -25.9428997 18.57430077
rfingers  -90 -7.125020027 -90
rthumb  -89.60083768 -33.59330664 -89.2785978
rfemur  -17.4564991 4.717949867 26.99860001
rtibia  -0 0 34.87739944
rfoot  -0 -14.9467001 -8.644370079
rtoes  -1.575397198 19.94038992 -85.38945295
lfemur  -0.4538429976 0.4877080023 -20.42370033
ltibia  -0 0 63.33990097
lfoot  -0 15.38000011 9.786970139
ltoes  -3.695914299 -19.66929668 -100.8636129
96
root  21.11051064 37.82333314 -30.52444458 -4.263070107 3.095249891 -2.180560112
lowerback  5.245409966 -1.957299948 1.864549994
upperback  2.493000031 -2.495609999 2.70265007
thorax  -0.332814008 -1.248049974 1.866050005
lowerneck  -15.1097002 2.665469885 -1.197679996
upperneck  -1.223649979 3.811100006 -2.284029961
head  2.23112011 1.811750054 -0.2817209959
lclavicle  0 -1.620099928e-014 -1.431250036e-014
lhumerus  -31.30529976 8.035099983 88.92369843
lradius  -3.087605399e-031 -1.71334087e-031 29.02630043
lwrist  0 7.062250077e-031 18.33379936
lhand  -1.522208093e-030 -21.89089966 22.84740067
lfingers  90 7.125020027 -90
lthumb  90.61603193 7.755020578 85.4441456
rclavicle  0 -1.620099928e-014 -1.431250036e-014
rhumerus  -39.24919891 -16.84550095 -76.04450226
rradius  3.38375957e-031 1.009462833e-031 16.61120033
rwrist  2.824900031e-030 -2.824900031e-030 -0.001474480028
rhand  1.570731925e-030 -25.9428997 18.57430077
rfingers  -90 -7.125020027 -90
rthumb  -89.60083768 -33.59330664 -89.2785978
rfemur  -16.56699944 4.347129822 27.06850052
rtibia  -0 0 34.5359993
rfoot  -0 -15.36089993 -8.212539673
rtoes  -1.575397198 19.94038992 -85.38945295
lfemur  -2.0009799 0.790768981 -20.4076004
ltibia  -0 0 65.24430084
lfoot  -0 13.69960022 11.54800034
ltoes  -3.695914299 -19.66929668 -100.8636129
97
root  21.10473302 37.88066774 -30.18555529 -4.294449806 2.993449926 -2.10236001
lowerback  5.302949905 -1.868620038 1.894029975
upperback  2.574409962 -2.377360106 2.598429918
thorax  -0.2890329957 -1.187870026 1.736320019
lowerneck  -15.06289959 2.572089911 -1.148929954
upperneck  -1.387969971 3.675770044 -2.321690083
head  2.167969942 1.745880008 -0.3130240142
lclavicle  0 -1.620099928e-014 -1.431250036e-014
lhumerus  -31.19560051 9.632470131 88.05879974
lradius  -3.143126963e-031 -1.609222461e-031 27.11160088
lwrist  0 -7.062250077e-031 16.86440086
lhand  -1.522208093e-030 -21.89089966 22.84740067
lfingers  90 7.125020027 -90
lthumb  90.61603193 7.755020578 85.4441456
rclavicle  0 -1.620099928e-014 -1.431250036e-014
rhumerus  -38.15599823 -16.24900055 -76.92620087
rradius  3.375556969e-031 1.036561233e-031 17.07060051
rwrist  0 -2.824900031e-030 -0.7515339851
rhand  1.570731925e-030 -25.9428997 18.57430077
rfingers  -90 -7.125020027 -90
rthumb  -89.60083768 -33.59330664 -89.2785978
rfemur  -15.7656002 4.134290218 27.08729935
rtibia  -0 0 34.22869873
rfoot  -0 -15.66419983 -7.973169804
rtoes  -1.575397198 19.94038992 -85.38945295
lfemur  -3.608350039 0.9782680273 -20.50510025
ltibia  -0 0 66.91159821
lfoot  -0 11.59379959 13.45909977
ltoes  -3.695914299 -19.66929668 -100.8636129
98
root  21.09346615 37.92511046 -29.84866645 -4.445159912 2.792550087 -2.071729898
lowerback  5.491099834 -1.739289999 1.933830023
upperback  2.626230001 -2.198499918 2.502660036
thorax  -0.3486169875 -1.097579956 1.611250043
lowerneck  -14.40429974 2.455460072 -1.141160011
upperneck  -2.031110048 3.489880085 -2.234699965
head  1.829399943 1.67031002 -0.3117209971
lclavicle  0 -1.620099928e-014 -1.431250036e-014
lhumerus  -31.40660095 10.83090019 87.29029846
lradius  -3.185194088e-031 -1.524264629e-031 25.57329941
lwrist  0 -3.531125038e-030 16.02809906
lhand  -1.522208093e-030 -21.89089966 22.84740067
lfingers  90 7.125020027 -90
lthumb  90.61603193 7.755020578 85.4441456
rclavicle  0 -1.620099928e-014 -1.431250036e-014
rhumerus  -37.27629852 -15.86600018 -77.61319733
rradius  3.366687855e-031 1.065014988e-031 17.55419922
rwrist  2.824900031e-030 -0 -1.215989947
rhand  1.570731925e-030 -25.9428997 18.57430077
rfingers  -90 -7.125020027 -90
rthumb  -89.60083768 -33.59330664 -89.2785978
rfemur  -14.80729961 4.161960125 27.18059921
rtibia  -0 0 33.86019897
rfoot  -0 -16.00200081 -7.804309845
rtoes  -1.575397198 19.94038992 -85.38945295
lfemur  -4.976290226 1.291739941 -20.51619911
ltibia  -0 0 68.38110352
lfoot  -0 9.236430168 15.05720043
ltoes  -3.695914299 -19.66929668 -100.8636129
99
root  21.06853395 37.97466548 -29.51466718 -4.467060089 2.541290045 -2.14489007
lowerback  5.604839802 -1.592749953 2.017159939
upperback  2.594439983 -1.994699955 2.412050009
thorax  -0.4534850121 -0.9948070049 1.463979959
lowerneck  -13.79920006 2.335309982 -1.407989979
upperneck  -2.427580118 3.339699984 -1.699450016
head  1.572989941 1.622269988 -0.1161200032
lclavicle  0 -1.620099928e-014 -1.431250036e-014
lhumerus  -31.7798996 11.88939953 86.3993988
lradius  -3.224146453e-031 -1.440042945e-031 24.06760025
lwrist  -2.824900031e-030 -2.118675023e-030 15.24849987
lhand  -1.522208093e-030 -21.89089966 22.84740067
lfingers  90 7.125020027 -90
lthumb  90.61603193 7.755020578 85.4441456
rclavicle  0 -1.620099928e-014 -1.431250036e-014
rhumerus  -36.53789902 -15.46899986 -78.33850098
rradius  3.356499033e-031 1.096703368e-031 18.09429932
rwrist  2.824900031e-030 -0 -1.481299996
rhand  1.570731925e-030 -25.9428997 18.57430077
rfingers  -90 -7.125020027 -90
rthumb  -89.60083768 -33.59330664 -89.2785978
rfemur  -13.96339989 4.273340225 27.39039993
rtibia  -0 0 33.40430069
rfoot  -0 -16.27739906 -7.635119915
rtoes  -1.575397198 19.94038992 -85.38945295
lfemur  -6.454070091 1.65802002 -20.34910011
ltibia  -0 0 69.70010376
lfoot  -0 7.05561018 16.09219933
ltoes  -3.695914299 -19.66929668 -100.8636129
100
root  21.02646715 38.01911121 -29.19200086 -4.351039886 2.063770056 -2.325200081
lowerback  5.680689812 -1.408560038 2.09961009
upperback  2.55343008 -1.741529942 2.385129929
thorax  -0.5437700152 -0.8679379821 1.377910018
lowerneck  -13.65450001 2.28234005 -1.555600047
upperneck  -2.432410002 3.281719923 -1.35126996
head  1.536790013 1.605100036 0.01379499957
lclavicle  0 -1.620099928e-014 -1.431250036e-014
lhumerus  -32.15729904 13.23999977 85.35079956
lradius  -3.258984607e-031 -1.359361383e-031 22.64159966
lwrist  -2.824900031e-030 -2.824900031e-030 14.01889992
lhand  -1.522208093e-030 -21.89089966 22.84740067
lfingers  90 7.125020027 -90
lthumb  90.61603193 7.755020578 85.4441456
rclavicle  0 -1.620099928e-014 -1.431250036e-014
rhumerus  -35.45230103 -15.07260036 -79.06159973
rradius  3.351736132e-031 1.111174577e-031 18.34149933
rwrist  0 -1.412450015e-030 -1.479359984
rhand  1.570731925e-030 -25.9428997 18.57430077
rfingers  -90 -7.125020027 -90
rthumb  -89.60083768 -33.59330664 -89.2785978
rfemur  -13.3046999 4.542490005 27.78720093
rtibia  -0 0 32.91030121
rfoot  -0 -16.35440063 -7.613840103
rtoes  -1.575397198 19.94038992 -85.38945295
lfemur  -8.165969849 2.249340057 -20.00309944
ltibia  -0 0 70.88020325
lfoot  -0 5.441669941 16.66530037
ltoes  -3.695914299 -19.66929668 -100.8636129
101
root  20.99495535 38.04711169 -28.87777794 -4.399690151 1.471500039 -2.654439926
lowerback  5.878170013 -1.247149944 2.381469965
upperback  2.633850098 -1.506520033 2.41170001
thorax  -0.5789369941 -0.7486619949 1.236930013
lowerneck  -13.6789999 2.285140038 -1.392249942
upperneck  -2.36255002 3.265079975 -1.464769959
head  1.569360018 1.591789961 -0.04967809841
lclavicle  0 -1.620099928e-014 -1.431250036e-014
lhumerus  -32.52539825 14.7510004 84.28749847
lradius  -3.285754934e-031 -1.293313013e-031 21.48520088
lwrist  0 -0 12.86200047
lhand  -1.522208093e-030 -21.89089966 22.84740067
lfingers  90 7.125020027 -90
lthumb  90.61603193 7.755020578 85.4441456
rclavicle  0 -1.620099928e-014 -1.431250036e-014
rhumerus  -34.09120178 -14.05179977 -80.07060242
rradius  3.347750729e-031 1.123124701e-031 18.54590034
rwrist  0 -4.237350046e-030 -1.938089967
rhand  1.570731925e-030 -25.9428997 18.57430077
rfingers  -90 -7.125020027 -90
rthumb  -89.60083768 -33.59330664 -89.2785978
rfemur  -12.47719955 4.906559944 28.36650085
rtibia  -0 0 32.42380142
rfoot  -0 -16.36619949 -7.625259876
rtoes  -1.575397198 19.94038992 -85.38945295
lfemur  -9.728750229 2.820539951 -19.52519989
ltibia  -0 0 71.84960175
lfoot  -0 3.9317801 16.96310043
ltoes  -3.695914299 -19.66929668 -100.8636129
102
root  20.99222198 38.07622354 -28.54999933 -4.592549801 0.9303500056 -2.595570087
lowerback  6.1208601 -1.097569942 2.445729971
upperback  2.741460085 -1.29885006 2.301800013
thorax  -0.607780993 -0.6437420249 1.078609943
lowerneck  -13.53540039 2.240099907 -1.327200055
upperneck  -2.372649908 3.194479942 -1.531170011
head  1.54321003 1.555259943 -0.08750279993
lclavicle  0 -1.620099928e-014 -1.431250036e-014
lhumerus  -33.00899887 15.98980045 83.36540222
lradius  -3.308259275e-031 -1.234611117e-031 20.46509933
lwrist  -2.824900031e-030 -7.062250077e-031 12.66240025
lhand  -1.522208093e-030 -21.89089966 22.84740067
lfingers  90 7.125020027 -90
lthumb  90.61603193 7.755020578 85.4441456
rclavicle  0 -1.620099928e-014 -1.431250036e-014
rhumerus  -33.03469849 -12.36260033 -81.24510193
rradius  3.335557374e-031 1.158836071e-031 19.15819931
rwrist  0 -1.412450015e-030 -2.987440109
rhand  1.570731925e-030 -25.9428997 18.57430077
rfingers  -90 -7.125020027 -90
rthumb  -89.60083768 -33.59330664 -89.2785978
rfemur  -11.38770008 5.197659969 28.44610023
rtibia  -0 0 31.89509964
rfoot  -0 -16.39340019 -7.388249874
rtoes  -1.575397198 19.94038992 -85.38945295
lfemur  -10.95540047 3.122889996 -19.58379936
ltibia  -0 0 72.43869781
lfoot  -0 2.399319887 17.0991993
ltoes  -3.695914299 -19.66929668 -100.8636129
